<svg width="32" height="32" viewBox="0 0 32 32" fill="none" xmlns="http://www.w3.org/2000/svg">
<path d="M4 4.32812L6.69839 4.79515L7.94768 19.6791C8.04757 20.8933 9.06465 21.8273 10.2828 21.8235H24.4351C25.5987 21.8261 26.586 20.9699 26.7507 19.8179L27.9819 11.3102C28.1193 10.3593 27.4604 9.47711 26.5095 9.33959C26.4264 9.32791 7.13168 9.32143 7.13168 9.32143" stroke="black" stroke-width="2" stroke-linecap="round" stroke-linejoin="round"/>
<path d="M9.65067 26.9936V27.1511M10.289 27.0275C10.289 27.382 10.0013 27.6695 9.64675 27.6695C9.29216 27.6695 9.00488 27.382 9.00488 27.0275C9.00488 26.6728 9.29216 26.3855 9.64675 26.3855C10.0013 26.3855 10.289 26.6728 10.289 27.0275Z" stroke="black" stroke-width="2" stroke-linecap="round" stroke-linejoin="round"/>
<path d="M24.349 26.9936V27.1511M24.9874 27.0275C24.9874 27.382 24.6997 27.6695 24.3451 27.6695C23.9905 27.6695 23.7031 27.382 23.7031 27.0275C23.7031 26.6728 23.9905 26.3855 24.3451 26.3855C24.6997 26.3855 24.9874 26.6728 24.9874 27.0275Z" stroke="black" stroke-width="2" stroke-linecap="round" stroke-linejoin="round"/>
</svg>
