<svg width="50" height="50" viewBox="0 0 50 50" fill="none" xmlns="http://www.w3.org/2000/svg">
<path fill-rule="evenodd" clip-rule="evenodd" d="M45.8327 25C45.8327 36.5058 36.5052 45.8333 24.9994 45.8333C13.4934 45.8333 4.16602 36.5058 4.16602 25C4.16602 13.4941 13.4934 4.16667 24.9994 4.16667C36.5052 4.16667 45.8327 13.4941 45.8327 25ZM18.6861 18.6868C19.2963 18.0766 20.2856 18.0766 20.8958 18.6868L24.9994 22.7902L29.1027 18.6868C29.7129 18.0766 30.7023 18.0766 31.3125 18.6868C31.9227 19.297 31.9227 20.2863 31.3125 20.8965L27.2089 25L31.3125 29.1033C31.9227 29.7135 31.9227 30.7029 31.3125 31.3131C30.7023 31.9233 29.7129 31.9233 29.1027 31.3131L24.9994 27.2098L20.8958 31.3131C20.2856 31.9233 19.2963 31.9233 18.6861 31.3131C18.0759 30.7029 18.0759 29.7135 18.6861 29.1035L22.7896 25L18.6861 20.8965C18.0759 20.2863 18.0759 19.297 18.6861 18.6868Z" fill="#B9B9B9"/>
</svg>
