<svg width="35" height="22" viewBox="0 0 35 22" fill="none" xmlns="http://www.w3.org/2000/svg">
<g clip-path="url(#clip0_2026_1144)">
<path d="M0 2.74463C0 1.22881 1.27118 0 2.83927 0H31.232C32.8 0 34.0712 1.22881 34.0712 2.74463V19.2124C34.0712 20.7282 32.8 21.957 31.232 21.957H2.83927C1.27118 21.957 0 20.7282 0 19.2124V2.74463Z" fill="#FCE0CF"/>
<path d="M20.2867 10.9644C20.2893 10.3745 20.0605 9.78371 19.6 9.33853C19.1386 8.89244 18.5259 8.67144 17.9144 8.67499C17.9115 8.67499 17.9086 8.6748 17.9056 8.6748C16.5777 8.6748 15.5244 9.69274 15.5244 10.9767C15.5244 12.2481 16.5907 13.2785 17.9056 13.2785C19.2339 13.2785 20.287 12.2604 20.287 10.9767C20.287 10.9725 20.2867 10.9685 20.2867 10.9644Z" fill="#F26E21"/>
<path d="M15.0821 11.9509C14.7262 12.2953 14.3977 12.4298 14.0439 12.4371C13.1819 12.4296 12.5482 11.8126 12.5482 10.9328C12.5482 10.4899 12.7216 10.127 12.9964 9.8169C13.2541 9.58042 13.5861 9.42762 13.9678 9.42762C14.3799 9.42762 14.7006 9.5604 15.0667 9.91455V8.89642C14.7007 8.71944 14.3798 8.63086 13.9678 8.63086C13.3857 8.67108 12.8368 8.89845 12.4158 9.25547C12.2945 9.36101 12.1782 9.47751 12.0796 9.61084C11.7721 9.99615 11.5862 10.468 11.5862 10.9772C11.5862 12.2608 12.6398 13.2347 13.9677 13.2347C13.9742 13.2347 13.9806 13.2341 13.9869 13.2341C13.9958 13.2342 14.0046 13.2347 14.0135 13.2347C14.3798 13.2347 14.7006 13.1463 15.1127 12.9692L15.0821 11.9509C15.0666 11.9658 15.0974 11.9797 15.0821 11.9938V11.9509Z" fill="#2B2B2B"/>
<path d="M23.2931 9.26522L22.256 11.73L21.0653 8.80811H20.1038L21.9812 13.2792H22.4849L24.4541 8.80811H23.4926L23.2931 9.26522Z" fill="#2B2B2B"/>
<path d="M24.821 10.756V13.1466H27.2941H27.3397V12.438H26.5612H25.7369V11.6414V11.2431H27.2941V10.4903H25.7369V9.56079H27.3397V8.80811H24.821V10.756Z" fill="#2B2B2B"/>
<path d="M4.12184 8.80908H2.83936V13.1476H4.12177C4.80858 13.1476 5.31224 12.9703 5.72439 12.6605C6.22805 12.262 6.54874 11.6425 6.54874 10.9785C6.54881 9.69442 5.58696 8.80908 4.12184 8.80908ZM5.175 12.0851C4.90022 12.3064 4.53386 12.439 3.98429 12.439H3.7095V9.5617H3.93844C4.48801 9.5617 4.85437 9.65022 5.12922 9.91573C5.44973 10.1812 5.633 10.5798 5.633 10.9784C5.67879 11.3768 5.49564 11.8192 5.175 12.0851Z" fill="#2B2B2B"/>
<path d="M7.83126 8.80811H6.96118V13.1465H7.83126V8.80811Z" fill="#2B2B2B"/>
<path d="M10.0294 10.4909C9.47999 10.3138 9.34244 10.1809 9.34244 9.95969C9.34244 9.69407 9.61723 9.47276 9.98359 9.47276C10.2584 9.47276 10.4873 9.56134 10.7163 9.82697L11.1744 9.25152C10.8079 8.94151 10.3501 8.76465 9.84635 8.76465C9.06766 8.76465 8.42651 9.2959 8.42651 10.004C8.42651 10.6238 8.70155 10.8894 9.52572 11.1993C9.89208 11.3319 10.0295 11.3763 10.1213 11.4649C10.3041 11.5533 10.3959 11.7305 10.3959 11.9074C10.3959 12.2616 10.1213 12.5272 9.70886 12.5272C9.29634 12.5272 8.93029 12.3059 8.74708 11.9517L8.19751 12.483C8.60985 13.0584 9.11357 13.324 9.75471 13.324C10.6705 13.324 11.3113 12.7486 11.3113 11.9074C11.3115 11.155 11.0369 10.8451 10.0294 10.4909Z" fill="#2B2B2B"/>
<path d="M29.813 11.3313C30.4997 11.1987 30.8662 10.7559 30.8662 10.092C30.8662 9.29534 30.2708 8.80811 29.2634 8.80811H27.9353V13.1466H28.8054V11.4199H28.9429L30.1791 13.1466H31.2325L29.813 11.3313ZM29.08 10.8001H28.8054V9.4722H29.08C29.6296 9.4722 29.9503 9.69345 29.9503 10.1364C29.9503 10.5789 29.6297 10.8001 29.08 10.8001Z" fill="#2B2B2B"/>
</g>
<defs>
<clipPath id="clip0_2026_1144">
<rect width="34.0712" height="21.957" fill="white"/>
</clipPath>
</defs>
</svg>
