<svg width="37" height="37" viewBox="0 0 37 37" fill="none" xmlns="http://www.w3.org/2000/svg">
<circle cx="18.4615" cy="18.4615" r="18.4615" fill="#1B1B1B"/>
<path d="M25.4756 13.3291C24.2785 12.8486 23.0153 12.5056 21.7175 12.3088C21.7058 12.3071 21.6937 12.3086 21.6829 12.3131C21.6722 12.3176 21.6633 12.3249 21.6575 12.334C21.4948 12.5863 21.3148 12.9163 21.1891 13.1747C19.7902 12.989 18.3672 12.989 16.9683 13.1747C16.828 12.8869 16.6693 12.6062 16.493 12.334C16.487 12.325 16.4781 12.3178 16.4674 12.3133C16.4567 12.3088 16.4447 12.3072 16.433 12.3088C15.1349 12.5046 13.8714 12.8477 12.6749 13.3291C12.6647 13.3325 12.6561 13.3389 12.6507 13.3472C10.2576 16.4746 9.60111 19.5253 9.92303 22.5376C9.92418 22.5518 9.93457 22.5659 9.94726 22.575C11.3408 23.4778 12.8994 24.1671 14.5568 24.6135C14.5685 24.6167 14.5811 24.6166 14.5927 24.6131C14.6043 24.6097 14.6144 24.6031 14.6214 24.5943C14.9768 24.1704 15.293 23.7234 15.5653 23.2531C15.571 23.2434 15.5729 23.2324 15.5708 23.2217C15.5687 23.2109 15.5627 23.2011 15.5537 23.1936C15.5478 23.1887 15.5407 23.1849 15.533 23.1825C15.0359 23.0154 14.5544 22.8146 14.093 22.582C14.0801 22.5756 14.0705 22.5652 14.0662 22.5528C14.0619 22.5404 14.0632 22.527 14.0699 22.5154C14.0738 22.5079 14.0798 22.5013 14.0872 22.4962C14.1841 22.4327 14.2811 22.3661 14.3734 22.2995C14.3815 22.2937 14.3913 22.29 14.4017 22.2888C14.412 22.2876 14.4226 22.2888 14.4322 22.2924C17.4541 23.4994 20.7252 23.4994 23.7102 22.2924C23.7202 22.2886 23.7311 22.2873 23.7419 22.2885C23.7527 22.2898 23.7628 22.2936 23.7713 22.2995C23.8636 22.3661 23.9606 22.4327 24.0575 22.4962C24.0653 22.5013 24.0717 22.5079 24.0759 22.5156C24.0801 22.5233 24.082 22.5317 24.0816 22.5402C24.0811 22.5487 24.0782 22.557 24.0732 22.5643C24.0682 22.5716 24.0612 22.5777 24.0529 22.582C23.5925 22.8168 23.1104 23.0173 22.6117 23.1815C22.6038 23.184 22.5966 23.188 22.5906 23.1932C22.5846 23.1985 22.58 23.2048 22.5771 23.2117C22.5745 23.2185 22.5734 23.2256 22.574 23.2327C22.5746 23.2399 22.5768 23.2468 22.5806 23.2531C22.8575 23.7224 23.1748 24.1704 23.5233 24.5943C23.5303 24.6031 23.5404 24.6097 23.552 24.6131C23.5636 24.6166 23.5762 24.6167 23.5879 24.6135C25.248 24.1684 26.8092 23.4791 28.2044 22.575C28.2114 22.5707 28.2172 22.5652 28.2214 22.5587C28.2256 22.5522 28.228 22.545 28.2286 22.5376C28.614 19.055 27.5836 16.0296 25.4986 13.3482C25.4965 13.3438 25.4934 13.3398 25.4894 13.3365C25.4854 13.3332 25.4807 13.3307 25.4756 13.3291ZM16.0164 20.703C15.1061 20.703 14.3572 19.9723 14.3572 19.0762C14.3572 18.1791 15.0922 17.4484 16.0164 17.4484C16.9476 17.4484 17.6895 18.1851 17.6756 19.0762C17.6756 19.9723 16.9406 20.703 16.0164 20.703ZM22.1502 20.703C21.241 20.703 20.491 19.9723 20.491 19.0762C20.491 18.1791 21.226 17.4484 22.1502 17.4484C23.0814 17.4484 23.8244 18.1851 23.8094 19.0762C23.8094 19.9723 23.0814 20.703 22.1502 20.703Z" fill="white"/>
</svg>
