<svg width="17" height="17" viewBox="0 0 17 17" fill="none" xmlns="http://www.w3.org/2000/svg">
<path d="M16.3116 0H0.67965C0.303718 0 0 0.303718 0 0.67965V16.3116C0 16.6875 0.303718 16.9912 0.67965 16.9912H16.3116C16.6875 16.9912 16.9912 16.6875 16.9912 16.3116V0.67965C16.9912 0.303718 16.6875 0 16.3116 0ZM14.3491 4.95932H12.9919C11.9279 4.95932 11.7218 5.46481 11.7218 6.20818V7.84571H14.262L13.9307 10.4093H11.7218V16.9912H9.07332V10.4114H6.85809V7.84571H9.07332V5.95543C9.07332 3.76144 10.4135 2.56568 12.3717 2.56568C13.3105 2.56568 14.1155 2.63577 14.3512 2.66763V4.95932H14.3491Z" fill="white"/>
</svg>
