<svg width="32" height="32" viewBox="0 0 32 32" fill="none" xmlns="http://www.w3.org/2000/svg">
<path d="M0 16C0 7.16344 7.16344 0 16 0C24.8366 0 32 7.16344 32 16C32 24.8366 24.8366 32 16 32C7.16344 32 0 24.8366 0 16Z" fill="#010A62"/>
<path d="M11.4287 11.9998H14.8573M14.8573 11.9998C14.8573 12.631 15.3689 13.1426 16.0001 13.1426C16.6313 13.1426 17.143 12.631 17.143 11.9998M14.8573 11.9998C14.8573 11.3686 15.3689 10.8569 16.0001 10.8569C16.6313 10.8569 17.143 11.3686 17.143 11.9998M17.143 11.9998H20.5716M11.4287 15.9998H18.2859M18.2859 15.9998C18.2859 16.631 18.7975 17.1426 19.4287 17.1426C20.0599 17.1426 20.5716 16.631 20.5716 15.9998C20.5716 15.3686 20.0599 14.8569 19.4287 14.8569C18.7975 14.8569 18.2859 15.3686 18.2859 15.9998ZM13.7144 19.9998H20.5716M13.7144 19.9998C13.7144 19.3686 13.2028 18.8569 12.5716 18.8569C11.9404 18.8569 11.4287 19.3686 11.4287 19.9998C11.4287 20.631 11.9404 21.1426 12.5716 21.1426C13.2028 21.1426 13.7144 20.631 13.7144 19.9998Z" stroke="white" stroke-width="0.857143" stroke-linecap="round"/>
</svg>
