<svg width="32" height="32" viewBox="0 0 32 32" fill="none" xmlns="http://www.w3.org/2000/svg">
<path d="M7.81402 28.5179H7.46745C6.21037 28.5179 5.58183 28.5179 5.1913 28.1273C4.80078 27.7368 4.80078 27.1083 4.80078 25.8512V24.3685C4.80078 23.6772 4.80078 23.3316 4.97835 23.0229C5.15593 22.7141 5.42381 22.5584 5.95958 22.2468C9.48687 20.1952 14.4961 19.0404 17.8396 21.0345C18.0641 21.1685 18.2662 21.3303 18.4388 21.5241C19.1829 22.36 19.1288 23.6215 18.2712 24.37C18.09 24.528 17.897 24.648 17.7026 24.6896C17.8624 24.6711 18.0154 24.6499 18.1616 24.6265C19.3768 24.4327 20.3968 23.7833 21.3306 23.0779L23.7402 21.2577C24.5897 20.616 25.8505 20.6159 26.7001 21.2573C27.465 21.8349 27.6989 22.7859 27.2153 23.5609C26.6514 24.4649 25.8569 25.6213 25.094 26.3279C24.33 27.0355 23.1926 27.6672 22.2641 28.1153C21.2354 28.6119 20.0992 28.8979 18.9433 29.0851C16.5992 29.4644 14.1562 29.4065 11.8359 28.9285C10.5242 28.6583 9.16183 28.5179 7.81402 28.5179Z" fill="white"/>
<path fill-rule="evenodd" clip-rule="evenodd" d="M15.9996 15.4666C19.5342 15.4666 22.3996 12.6012 22.3996 9.06663C22.3996 5.532 19.5342 2.66663 15.9996 2.66663C12.465 2.66663 9.59961 5.532 9.59961 9.06663C9.59961 12.6012 12.465 15.4666 15.9996 15.4666ZM16.4796 5.22663C16.4796 4.96153 16.2647 4.74663 15.9996 4.74663C15.7345 4.74663 15.5196 4.96153 15.5196 5.22663V5.42933C14.4761 5.61617 13.5996 6.40014 13.5996 7.46663C13.5996 8.69363 14.7598 9.54663 15.9996 9.54663C16.8806 9.54663 17.4396 10.1263 17.4396 10.6666C17.4396 11.207 16.8806 11.7866 15.9996 11.7866C15.1186 11.7866 14.5596 11.207 14.5596 10.6666C14.5596 10.4015 14.3447 10.1866 14.0796 10.1866C13.8145 10.1866 13.5996 10.4015 13.5996 10.6666C13.5996 11.7331 14.4761 12.5171 15.5196 12.7039V12.9066C15.5196 13.1717 15.7345 13.3866 15.9996 13.3866C16.2647 13.3866 16.4796 13.1717 16.4796 12.9066V12.7039C17.5231 12.5171 18.3996 11.7331 18.3996 10.6666C18.3996 9.43962 17.2394 8.58663 15.9996 8.58663C15.1186 8.58663 14.5596 8.00698 14.5596 7.46663C14.5596 6.92629 15.1186 6.34663 15.9996 6.34663C16.8806 6.34663 17.4396 6.92629 17.4396 7.46663C17.4396 7.73172 17.6545 7.94663 17.9196 7.94663C18.1847 7.94663 18.3996 7.73172 18.3996 7.46663C18.3996 6.40014 17.5231 5.61617 16.4796 5.42933V5.22663Z" fill="white"/>
</svg>
