<svg width="37" height="37" viewBox="0 0 37 37" fill="none" xmlns="http://www.w3.org/2000/svg">
<circle cx="18.4615" cy="18.4615" r="18.4615" fill="white"/>
<path fill-rule="evenodd" clip-rule="evenodd" d="M15.2709 8.67111C16.2552 8.62579 16.5691 8.61572 19.0765 8.61572C21.5839 8.61572 21.8977 8.62663 22.8812 8.67111C23.8647 8.71558 24.5361 8.87251 25.1235 9.09992C25.7386 9.33237 26.2966 9.69572 26.7582 10.1657C27.2281 10.6264 27.5906 11.1836 27.8222 11.7995C28.0505 12.3869 28.2065 13.0582 28.2519 14.0401C28.2972 15.0261 28.3072 15.3399 28.3072 17.8465C28.3072 20.3539 28.2963 20.6678 28.2519 21.6521C28.2074 22.6339 28.0505 23.3052 27.8222 23.8926C27.5906 24.5087 27.2275 25.0668 26.7582 25.5282C26.2966 25.9981 25.7386 26.3606 25.1235 26.5922C24.5361 26.8205 23.8647 26.9766 22.8829 27.0219C21.8977 27.0672 21.5839 27.0773 19.0765 27.0773C16.5691 27.0773 16.2552 27.0664 15.2709 27.0219C14.2891 26.9774 13.6177 26.8205 13.0303 26.5922C12.4143 26.3606 11.8562 25.9975 11.3948 25.5282C10.9252 25.0672 10.5618 24.5093 10.3299 23.8935C10.1025 23.3061 9.9464 22.6347 9.90109 21.6529C9.85577 20.6669 9.8457 20.3531 9.8457 17.8465C9.8457 15.3391 9.85661 15.0252 9.90109 14.0417C9.94556 13.0582 10.1025 12.3869 10.3299 11.7995C10.5621 11.1836 10.9258 10.6258 11.3956 10.1648C11.8564 9.6953 12.4139 9.3319 13.0295 9.09992C13.6169 8.87251 14.2882 8.71642 15.27 8.67111H15.2709ZM22.8065 10.3326C21.8331 10.2882 21.5411 10.2789 19.0765 10.2789C16.6119 10.2789 16.3198 10.2882 15.3464 10.3326C14.446 10.3738 13.9576 10.524 13.632 10.6507C13.2015 10.8185 12.8935 11.0174 12.5705 11.3405C12.2642 11.6384 12.0285 12.0011 11.8807 12.402C11.754 12.7276 11.6037 13.216 11.5626 14.1164C11.5182 15.0898 11.5089 15.3819 11.5089 17.8465C11.5089 20.3111 11.5182 20.6031 11.5626 21.5766C11.6037 22.477 11.754 22.9654 11.8807 23.291C12.0284 23.6912 12.2642 24.0546 12.5705 24.3525C12.8684 24.6588 13.2317 24.8946 13.632 25.0423C13.9576 25.169 14.446 25.3192 15.3464 25.3603C16.3198 25.4048 16.611 25.414 19.0765 25.414C21.5419 25.414 21.8331 25.4048 22.8065 25.3603C23.707 25.3192 24.1954 25.169 24.5209 25.0423C24.9514 24.8745 25.2594 24.6756 25.5825 24.3525C25.8888 24.0546 26.1246 23.6912 26.2723 23.291C26.399 22.9654 26.5492 22.477 26.5903 21.5766C26.6348 20.6031 26.644 20.3111 26.644 17.8465C26.644 15.3819 26.6348 15.0898 26.5903 14.1164C26.5492 13.216 26.399 12.7276 26.2723 12.402C26.1044 11.9715 25.9056 11.6636 25.5825 11.3405C25.2845 11.0342 24.9218 10.7986 24.5209 10.6507C24.1954 10.524 23.707 10.3738 22.8065 10.3326ZM17.8975 20.6921C18.5559 20.9662 19.2891 21.0032 19.9718 20.7967C20.6545 20.5903 21.2444 20.1533 21.6406 19.5603C22.0369 18.9672 22.215 18.2551 22.1445 17.5453C22.074 16.8356 21.7593 16.1723 21.2541 15.6689C20.9321 15.347 20.5427 15.1006 20.114 14.9473C19.6852 14.794 19.2279 14.7377 18.7748 14.7824C18.3217 14.8271 17.8842 14.9717 17.4937 15.2058C17.1031 15.4398 16.7694 15.7576 16.5164 16.1362C16.2635 16.5147 16.0976 16.9446 16.0308 17.395C15.9639 17.8453 15.9977 18.3049 16.1298 18.7406C16.2619 19.1763 16.4889 19.5774 16.7946 19.9148C17.1002 20.2522 17.4769 20.5177 17.8975 20.6921ZM15.7215 14.4915C16.1621 14.0509 16.6851 13.7015 17.2608 13.463C17.8364 13.2246 18.4534 13.1019 19.0765 13.1019C19.6995 13.1019 20.3165 13.2246 20.8922 13.463C21.4678 13.7015 21.9909 14.0509 22.4314 14.4915C22.872 14.9321 23.2215 15.4552 23.4599 16.0308C23.6984 16.6064 23.8211 17.2234 23.8211 17.8465C23.8211 18.4696 23.6984 19.0865 23.4599 19.6622C23.2215 20.2378 22.872 20.7609 22.4314 21.2015C21.5416 22.0912 20.3348 22.5911 19.0765 22.5911C17.8181 22.5911 16.6113 22.0912 15.7215 21.2015C14.8317 20.3117 14.3318 19.1048 14.3318 17.8465C14.3318 16.5881 14.8317 15.3813 15.7215 14.4915ZM24.8734 13.8085C24.9826 13.7055 25.07 13.5816 25.1304 13.4442C25.1909 13.3069 25.2232 13.1587 25.2254 13.0087C25.2275 12.8586 25.1996 12.7096 25.1432 12.5705C25.0867 12.4314 25.003 12.3051 24.8969 12.199C24.7907 12.0928 24.6644 12.0091 24.5253 11.9527C24.3862 11.8962 24.2372 11.8683 24.0872 11.8705C23.9371 11.8727 23.789 11.9049 23.6516 11.9654C23.5142 12.0259 23.3904 12.1133 23.2874 12.2224C23.0871 12.4348 22.9774 12.7168 22.9817 13.0087C22.9859 13.3005 23.1038 13.5793 23.3102 13.7857C23.5166 13.9921 23.7953 14.1099 24.0872 14.1142C24.379 14.1184 24.6611 14.0087 24.8734 13.8085Z" fill="#031057"/>
</svg>
