<svg width="34" height="22" viewBox="0 0 34 22" fill="none" xmlns="http://www.w3.org/2000/svg">
<g clip-path="url(#clip0_2026_1138)">
<path d="M0 2.74463C0 1.22881 1.24294 0 2.77617 0H30.5379C32.0712 0 33.3141 1.22881 33.3141 2.74463V19.2124C33.3141 20.7282 32.0712 21.957 30.5379 21.957H2.77617C1.24294 21.957 0 20.7282 0 19.2124V2.74463Z" fill="#CCEFFF"/>
<path d="M20.3005 17.4541H13.0137V4.50732H20.3005V17.4541Z" fill="#6C6BBD"/>
<path d="M13.4805 10.9785C13.4805 8.3522 14.7243 6.01275 16.6612 4.50512C15.2448 3.40266 13.4572 2.74464 11.5145 2.74464C6.91523 2.74464 3.18701 6.43102 3.18701 10.9785C3.18701 15.526 6.91523 19.2124 11.5145 19.2124C13.4572 19.2124 15.2448 18.5544 16.6612 17.4519C14.7243 15.9443 13.4805 13.6048 13.4805 10.9785Z" fill="#EB001B"/>
<path d="M30.1278 10.9785C30.1278 15.526 26.3996 19.2124 21.8004 19.2124C19.8576 19.2124 18.07 18.5544 16.6531 17.4519C18.5905 15.9443 19.8343 13.6048 19.8343 10.9785C19.8343 8.3522 18.5905 6.01275 16.6531 4.50512C18.07 3.40266 19.8576 2.74464 21.8004 2.74464C26.3996 2.74464 30.1278 6.43102 30.1278 10.9785Z" fill="#0099DF"/>
</g>
<defs>
<clipPath id="clip0_2026_1138">
<rect width="33.3141" height="21.957" fill="white"/>
</clipPath>
</defs>
</svg>
