<svg width="35" height="22" viewBox="0 0 35 22" fill="none" xmlns="http://www.w3.org/2000/svg">
<g clip-path="url(#clip0_2026_1129)">
<path d="M0 2.74463C0 1.22881 1.27118 0 2.83927 0H31.232C32.8 0 34.0712 1.22881 34.0712 2.74463V19.2124C34.0712 20.7282 32.8 21.957 31.232 21.957H2.83927C1.27118 21.957 0 20.7282 0 19.2124V2.74463Z" fill="#CCDEFF"/>
<path d="M7.6454 7.90288C7.28953 7.66639 6.82513 7.54785 6.25223 7.54785H4.03426C3.85863 7.54785 3.7616 7.63276 3.74317 7.80241L2.84218 13.2696C2.83282 13.3233 2.84672 13.3724 2.88375 13.4171C2.92057 13.4618 2.96688 13.484 3.02235 13.484H4.07587C4.26065 13.484 4.36221 13.3993 4.38086 13.2295L4.63034 11.7555C4.63945 11.6841 4.67195 11.626 4.72741 11.5813C4.78283 11.5366 4.85215 11.5074 4.93533 11.4941C5.0185 11.4808 5.09693 11.4741 5.171 11.4741C5.24485 11.4741 5.3326 11.4786 5.43442 11.4875C5.53599 11.4964 5.60073 11.5008 5.62848 11.5008C6.4232 11.5008 7.04699 11.2843 7.4999 10.8509C7.95259 10.4177 8.1792 9.81701 8.1792 9.04854C8.1792 8.52148 8.00111 8.13963 7.6454 7.90276V7.90288ZM6.50184 9.54451C6.45549 9.85724 6.33549 10.0626 6.14143 10.1609C5.94733 10.2593 5.67009 10.3083 5.30972 10.3083L4.85224 10.3217L5.08795 8.88782C5.10634 8.78964 5.16638 8.74049 5.26811 8.74049H5.53158C5.90106 8.74049 6.16923 8.79198 6.33558 8.89454C6.50184 8.99735 6.55731 9.21406 6.50184 9.54451Z" fill="#003087"/>
<path d="M31.0516 7.54785H30.0259C29.9239 7.54785 29.8639 7.597 29.8456 7.69535L28.9446 13.2698L28.9307 13.2966C28.9307 13.3415 28.9491 13.3838 28.9862 13.424C29.023 13.4641 29.0694 13.4842 29.1248 13.4842H30.0398C30.2151 13.4842 30.3122 13.3995 30.331 13.2297L31.2319 7.74896V7.73565C31.2319 7.61052 31.1716 7.54802 31.0516 7.54802V7.54785Z" fill="#009CDE"/>
<path d="M18.6586 9.70663C18.6586 9.66207 18.6401 9.61956 18.6033 9.57946C18.5662 9.53928 18.5246 9.51904 18.4785 9.51904H17.4112C17.3093 9.51904 17.2261 9.56393 17.1615 9.65302L15.6922 11.7435L15.0822 9.7335C15.0358 9.59068 14.9343 9.51904 14.7773 9.51904H13.7375C13.6911 9.51904 13.6496 9.53919 13.6128 9.57946C13.5758 9.61956 13.5574 9.66215 13.5574 9.70663C13.5574 9.72462 13.6475 9.98806 13.8277 10.4973C14.0078 11.0066 14.2019 11.556 14.4098 12.1457C14.6178 12.7352 14.7263 13.0481 14.7356 13.0835C13.9777 14.0842 13.599 14.6202 13.599 14.6915C13.599 14.8078 13.6589 14.8658 13.7792 14.8658H14.8466C14.9482 14.8658 15.0313 14.8212 15.0961 14.7318L18.6311 9.80039C18.6494 9.7827 18.6586 9.75157 18.6586 9.70659V9.70663Z" fill="#003087"/>
<path d="M28.5987 9.51714H27.5451C27.4156 9.51714 27.3374 9.66459 27.3096 9.95945C27.069 9.60221 26.6304 9.42334 25.9925 9.42334C25.3272 9.42334 24.7611 9.66459 24.2945 10.147C23.8277 10.6294 23.5945 11.1969 23.5945 11.8489C23.5945 12.3761 23.7539 12.7959 24.0726 13.1085C24.3915 13.4214 24.8188 13.5775 25.355 13.5775C25.623 13.5775 25.8956 13.5238 26.1728 13.4167C26.4501 13.3095 26.667 13.1667 26.8245 12.9879C26.8245 12.9969 26.815 13.037 26.7967 13.1084C26.7781 13.18 26.769 13.2338 26.769 13.2692C26.769 13.4123 26.8289 13.4836 26.9492 13.4836H27.9058C28.0811 13.4836 28.1829 13.3989 28.2105 13.229L28.779 9.73152C28.7881 9.67786 28.7743 9.62883 28.7374 9.5841C28.7002 9.53954 28.6541 9.51714 28.5987 9.51714ZM26.7897 12.1571C26.554 12.3805 26.2698 12.4921 25.9372 12.4921C25.669 12.4921 25.4521 12.4207 25.2856 12.2777C25.1192 12.1351 25.036 11.9385 25.036 11.6881C25.036 11.3578 25.1516 11.0784 25.3827 10.8506C25.6134 10.6228 25.9002 10.5089 26.2421 10.5089C26.5007 10.5089 26.7156 10.5826 26.8867 10.7299C27.0575 10.8774 27.1433 11.0806 27.1433 11.3398C27.1432 11.6613 27.0253 11.9339 26.7897 12.1571Z" fill="#009CDE"/>
<path d="M12.851 9.51714H11.7975C11.6679 9.51714 11.5895 9.66459 11.5618 9.95945C11.3123 9.60221 10.8732 9.42334 10.2448 9.42334C9.57944 9.42334 9.01333 9.66459 8.54669 10.147C8.07993 10.6294 7.84668 11.1969 7.84668 11.8489C7.84668 12.3761 8.00612 12.7959 8.32496 13.1085C8.64381 13.4214 9.07112 13.5775 9.6072 13.5775C9.86583 13.5775 10.134 13.5238 10.4112 13.4167C10.6884 13.3095 10.9102 13.1667 11.0766 12.9879C11.0395 13.095 11.0211 13.1889 11.0211 13.2692C11.0211 13.4123 11.0812 13.4836 11.2013 13.4836H12.1578C12.3333 13.4836 12.435 13.3989 12.4628 13.229L13.0311 9.73152C13.0402 9.67786 13.0264 9.62883 12.9896 9.5841C12.9526 9.53954 12.9064 9.51714 12.851 9.51714ZM11.042 12.1637C10.8063 12.3829 10.5174 12.4921 10.1756 12.4921C9.90748 12.4921 9.69262 12.4207 9.53101 12.2777C9.3692 12.1351 9.2884 11.9385 9.2884 11.6881C9.2884 11.3578 9.40386 11.0784 9.63499 10.8506C9.86587 10.6228 10.1524 10.5089 10.4944 10.5089C10.7531 10.5089 10.9679 10.5826 11.1391 10.7299C11.3099 10.8774 11.3955 11.0806 11.3955 11.3398C11.3955 11.6703 11.2777 11.9451 11.042 12.1637Z" fill="#003087"/>
<path d="M23.393 7.90288C23.0372 7.66639 22.5729 7.54785 21.9999 7.54785H19.7958C19.6109 7.54785 19.5092 7.63276 19.4908 7.80241L18.5897 13.2696C18.5804 13.3233 18.5943 13.3724 18.6314 13.4171C18.668 13.4618 18.7144 13.484 18.7699 13.484H19.9066C20.0174 13.484 20.0913 13.426 20.1284 13.3099L20.3779 11.7555C20.3871 11.6841 20.4195 11.626 20.475 11.5813C20.5305 11.5366 20.5997 11.5074 20.683 11.4941C20.7661 11.4808 20.8445 11.4741 20.9186 11.4741C20.9925 11.4741 21.0802 11.4786 21.1819 11.4875C21.2835 11.4964 21.3484 11.5008 21.376 11.5008C22.1709 11.5008 22.7945 11.2843 23.2474 10.8509C23.7003 10.4177 23.9267 9.81701 23.9267 9.04854C23.9267 8.52148 23.7487 8.13958 23.393 7.90276V7.90288ZM21.9722 10.1072C21.7689 10.2412 21.4638 10.3082 21.0573 10.3082L20.6136 10.3216L20.8493 8.88774C20.8676 8.7896 20.9277 8.74037 21.0295 8.74037H21.2789C21.4823 8.74037 21.6439 8.74934 21.7643 8.76716C21.8842 8.7851 21.9999 8.84084 22.1108 8.9346C22.2218 9.02843 22.2771 9.16474 22.2771 9.34332C22.2771 9.71867 22.1754 9.97315 21.9722 10.1072Z" fill="#009CDE"/>
</g>
<defs>
<clipPath id="clip0_2026_1129">
<rect width="34.0712" height="21.957" fill="white"/>
</clipPath>
</defs>
</svg>
