<svg width="65" height="65" viewBox="0 0 65 65" fill="none" xmlns="http://www.w3.org/2000/svg">
<circle cx="32.5" cy="32.5" r="32.5" fill="#0156FF"/>
<g clip-path="url(#clip0_2026_353)">
<path d="M45.2045 20.9949C45.129 20.8071 44.9841 20.6555 44.7998 20.5719C44.6155 20.4882 44.406 20.4787 44.215 20.5455C44.0239 20.6124 43.866 20.7503 43.774 20.9306C43.682 21.1109 43.6631 21.3197 43.7212 21.5136C44.9289 24.9846 42.5317 27.5768 40.7039 28.9652L39.9655 27.907C39.7172 27.5521 39.1621 27.257 38.7305 27.2518L34.5861 27.27C34.0798 27.2853 33.5871 27.4371 33.16 27.7094L20.9478 36.2725C20.6637 36.4724 20.4704 36.7767 20.4102 37.1188C20.3501 37.4609 20.4279 37.8129 20.6267 38.0977L26.1764 46.0381C26.5924 46.6296 27.2567 46.5581 27.8495 46.1447L40.0617 37.5803C40.4127 37.332 40.8183 36.7964 40.9613 36.3869L42.2587 32.2984C42.4017 31.8902 42.3146 31.2675 42.0663 30.9126L41.6165 30.2678C44.0709 28.3867 46.6189 25.0626 45.2045 20.9949ZM39.5222 33.1603C39.2972 33.3178 39.0434 33.4294 38.7753 33.4888C38.5071 33.5481 38.2299 33.5541 37.9595 33.5063C37.6891 33.4584 37.4307 33.3578 37.1992 33.2101C36.9677 33.0624 36.7675 32.8706 36.6102 32.6455C36.2916 32.1901 36.1667 31.6268 36.263 31.0794C36.3593 30.532 36.6688 30.0451 37.1237 29.7257C37.4803 29.4759 37.906 29.3437 38.3414 29.3477C38.7768 29.3516 39.2001 29.4915 39.5521 29.7478C39.1985 29.961 38.9554 30.0858 38.9099 30.1053C38.7487 30.1821 38.6184 30.3114 38.5404 30.472C38.4623 30.6326 38.4411 30.8149 38.4803 30.9891C38.5194 31.1633 38.6165 31.319 38.7558 31.4308C38.895 31.5425 39.068 31.6037 39.2466 31.6042C39.3584 31.6042 39.4728 31.5782 39.5807 31.5275C39.8329 31.4079 40.1033 31.2662 40.3854 31.0985C40.4503 31.4886 40.4037 31.8891 40.2509 32.2538C40.0982 32.6186 39.8456 32.9328 39.5222 33.1603Z" fill="white"/>
</g>
<defs>
<clipPath id="clip0_2026_353">
<rect width="26" height="26" fill="white" transform="translate(20 20.4683)"/>
</clipPath>
</defs>
</svg>
