<svg width="37" height="37" viewBox="0 0 37 37" fill="none" xmlns="http://www.w3.org/2000/svg">
<circle cx="18.4615" cy="18.4615" r="18.4615" fill="#1B1B1B"/>
<path d="M28.3082 12.8315C27.6293 13.1199 26.8905 13.3275 26.1295 13.4083C26.9196 12.9461 27.5113 12.2159 27.7935 11.3546C27.0521 11.7889 26.2399 12.0935 25.3929 12.2548C25.0389 11.8821 24.6107 11.5852 24.1351 11.3826C23.6595 11.18 23.1466 11.076 22.6284 11.0772C20.5318 11.0772 18.8456 12.7507 18.8456 14.8044C18.8456 15.0928 18.8811 15.3812 18.9388 15.6587C15.7994 15.497 12.9994 14.0201 11.1379 11.7588C10.7988 12.3293 10.621 12.9789 10.6232 13.6399C10.6232 14.9333 11.291 16.0738 12.3094 16.7445C11.7093 16.7212 11.1232 16.5588 10.5988 16.2704V16.3163C10.5988 18.1275 11.8989 19.6285 13.6317 19.9736C13.3064 20.0569 12.9717 20.0994 12.6355 20.1004C12.3893 20.1004 12.1563 20.0763 11.9211 20.0436C12.4004 21.5205 13.7959 22.5932 15.4577 22.6282C14.1576 23.631 12.529 24.2209 10.7608 24.2209C10.4435 24.2209 10.1506 24.21 9.84668 24.175C11.524 25.2346 13.5141 25.8464 15.6574 25.8464C22.6151 25.8464 26.4223 20.1703 26.4223 15.2436C26.4223 15.0819 26.4223 14.9202 26.4113 14.7585C27.1479 14.2276 27.7935 13.57 28.3082 12.8315Z" fill="white"/>
</svg>
