<svg width="34" height="22" viewBox="0 0 34 22" fill="none" xmlns="http://www.w3.org/2000/svg">
<g clip-path="url(#clip0_2026_1121)">
<path d="M0 2.74463C0 1.22881 1.24294 0 2.77617 0H30.5379C32.0712 0 33.3141 1.22881 33.3141 2.74463V19.2124C33.3141 20.7282 32.0712 21.957 30.5379 21.957H2.77617C1.24294 21.957 0 20.7282 0 19.2124V2.74463Z" fill="#D8E3F3"/>
<path d="M28.6711 6.88232H26.9258C26.3982 6.88232 25.9923 7.04283 25.7488 7.56447L22.4207 15.0681H24.7747C24.7747 15.0681 25.1806 14.0649 25.2618 13.8241C25.5053 13.8241 27.8188 13.8241 28.1435 13.8241C28.2246 14.105 28.4276 15.0279 28.4276 15.0279H30.5381L28.6711 6.88232ZM25.9112 12.1388C26.1141 11.6573 26.8041 9.85166 26.8041 9.85166C26.8041 9.89178 27.007 9.37014 27.0882 9.08926L27.2505 9.81153C27.2505 9.81153 27.697 11.7777 27.7782 12.179H25.9112V12.1388Z" fill="#3362AB"/>
<path d="M22.5828 12.3818C22.5828 14.0671 21.0405 15.1906 18.6458 15.1906C17.6311 15.1906 16.657 14.99 16.1294 14.7493L16.4541 12.9035L16.7382 13.0238C17.4688 13.3448 17.9558 13.4652 18.8487 13.4652C19.4981 13.4652 20.1881 13.2245 20.1881 12.6627C20.1881 12.3016 19.904 12.0608 19.0111 11.6595C18.1588 11.2583 17.0223 10.6163 17.0223 9.45261C17.0223 7.84757 18.6052 6.76416 20.8375 6.76416C21.6899 6.76416 22.4204 6.92466 22.8669 7.1253L22.5422 8.89084L22.3798 8.73034C21.974 8.56984 21.4463 8.40933 20.6752 8.40933C19.8228 8.44946 19.417 8.81059 19.417 9.1316C19.417 9.49274 19.904 9.77362 20.6752 10.1348C21.974 10.7366 22.5828 11.4188 22.5828 12.3818Z" fill="#3362AB"/>
<path d="M2.77612 6.96422L2.81671 6.80371H6.30722C6.79427 6.80371 7.15956 6.96422 7.28132 7.48586L8.05248 11.0972C7.28132 9.17115 5.49547 7.60623 2.77612 6.96422Z" fill="#F9B50B"/>
<path d="M12.9637 6.88436L9.43257 15.03H7.03791L5.00854 8.20853C6.46969 9.13143 7.68731 10.576 8.13377 11.5791L8.37729 12.4218L10.569 6.84424H12.9637V6.88436Z" fill="#3362AB"/>
<path d="M13.8971 6.84424H16.1294L14.7089 15.03H12.4766L13.8971 6.84424Z" fill="#3362AB"/>
</g>
<defs>
<clipPath id="clip0_2026_1121">
<rect width="33.3141" height="21.957" fill="white"/>
</clipPath>
</defs>
</svg>
